HIERARCHY
ROOT Hips
{
  OFFSET 0 0 0
  CHANNELS 6 Xposition Yposition Zposition Zrotation Yrotation Xrotation
  JOINT LeftThigh
  {
    OFFSET 8.409438 0 -5.917753
    CHANNELS 3 Zrotation Yrotation Xrotation
    JOINT LeftLeg
    {
      OFFSET 0 0 -42.358652
      CHANNELS 3 Zrotation Yrotation Xrotation
      JOINT LeftFoot
      {
        OFFSET 0 0 -39.357303
        CHANNELS 3 Zrotation Yrotation Xrotation
      }
    }
  }
  JOINT RightThigh
  {
    OFFSET -8.409438 0 -5.917753
    CHANNELS 3 Zrotation Yrotation Xrotation
    JOINT RightLeg
    {
      OFFSET 0 0 -42.358652
      CHANNELS 3 Zrotation Yrotation Xrotation
      JOINT RightFoot
      {
        OFFSET 0 0 -39.357303
        CHANNELS 3 Zrotation Yrotation Xrotation
      }
    }
  }
  JOINT SpineLow
  {
    OFFSET 0 0 4.719101
    CHANNELS 3 Zrotation Yrotation Xrotation
    JOINT SpineMid
    {
      OFFSET 0 0 12.899191
      CHANNELS 3 Zrotation Yrotation Xrotation
      JOINT Chest
      {
        OFFSET 0 0 12.899191
        CHANNELS 3 Zrotation Yrotation Xrotation
        JOINT LeftShoulder
        {
          OFFSET 7.550562 1.41573 9.438202
          CHANNELS 3 Zrotation Yrotation Xrotation
          JOINT LeftArm
          {
            OFFSET 9.155056 0 4.247191
            CHANNELS 3 Zrotation Yrotation Xrotation
            JOINT LeftForearm
            {
              OFFSET 0 0 25.771955
              CHANNELS 3 Zrotation Yrotation Xrotation
              JOINT LeftHand
              {
                OFFSET 0 0 25.197169
                CHANNELS 3 Zrotation Yrotation Xrotation
              }
            }
          }
        }
        JOINT RightShoulder
        {
          OFFSET -7.550562 1.41573 9.438202
          CHANNELS 3 Zrotation Yrotation Xrotation
          JOINT RightArm
          {
            OFFSET -9.155056 0 4.247191
            CHANNELS 3 Zrotation Yrotation Xrotation
            JOINT RightForearm
            {
              OFFSET 0 0 -25.771955
              CHANNELS 3 Zrotation Yrotation Xrotation
              JOINT RightHand
              {
                OFFSET 0 0 -25.197169
                CHANNELS 3 Zrotation Yrotation Xrotation
              }
            }
          }
        }
        JOINT Neck
        {
          OFFSET 0 0 15.101124
          CHANNELS 3 Zrotation Yrotation Xrotation
          JOINT Head
          {
            OFFSET 0 0 11.325843
            CHANNELS 3 Zrotation Yrotation Xrotation
            End Site
            {
              OFFSET 0 0 14.157303
            }
          }
        }
      }
    }
  }
}
MOTION
Frames: 5
Frame Time: 0.0
0.0  89.887642  0.0  1.497687  17.912178  -96.370255  -2.696553  -12.018802  -3.106647  -4.801494  3.27989  21.608431  -3.134431  0.10992  -0.465419  -23.486126  11.75167  4.056336  -23.082031  8.167456  6.796461  5.248021  2.481724  -0.609228  4.35268  -1.18384  2.61047  11.764975  -3.688442  6.902639  11.764975  -3.688442  6.902638  -13.310303  1.351556  -17.125845  135.49893  40.646026  -134.363919  23.104663  -0.587318  25.968804  106.500035  -4.96465  16.32241  1.162015  -6.560115  7.080202  95.440816  28.208312  23.233901  13.945454  -30.262285  -96.662269  48.132967  1.284179  0.662264  -30.936129  -0.875451  -1.758976  -23.204384  -0.569158  -1.367764  
0.0  89.887642  0.0  1.093706  15.099733  -96.626819  -2.518276  -12.453895  -2.635068  -4.113626  3.341663  22.204559  -3.159114  0.096605  -0.436075  -23.651957  11.462655  3.143326  -21.889582  8.026541  7.40749  5.910075  2.492842  -0.542307  4.673734  -1.117868  2.706446  12.642771  -3.559822  7.156685  12.642771  -3.559822  7.156686  -10.8589  -0.657074  -17.436168  145.192004  37.082395  -133.575906  24.505051  -2.634514  33.349788  106.283067  -3.632968  20.19238  1.707466  -7.464974  6.767296  95.040597  28.986594  24.070036  13.081856  -29.825105  -96.714479  50.674546  0.245456  1.642756  -30.83291  -1.557553  -1.517501  -23.127275  -1.094822  -1.220468  
0.0  89.887642  0.0  0.752144  12.218502  -96.9296  -2.363676  -12.974222  -1.977505  -3.559661  3.659763  22.738075  -3.18262  0.102367  -0.439237  -23.926341  11.101036  2.174369  -20.427245  8.110224  8.226662  6.497767  2.485286  -0.515382  4.909885  -1.093942  2.648428  13.293682  -3.508122  6.98926  13.293682  -3.508122  6.989259  -8.040506  -2.171678  -15.815207  152.65387  33.965336  -134.412026  22.780721  -5.176794  41.096956  105.852489  -1.96737  24.380483  1.619077  -7.85533  7.729944  94.312171  29.831797  24.316711  10.976656  -28.716218  -96.580536  52.446821  -1.319108  1.807693  -30.481284  -1.773678  -0.80801  -22.86151  -1.293736  -0.69664  
0.0  89.887642  0.0  0.47179  9.19009  -97.25358  -2.040807  -13.495114  -1.150023  -3.287525  4.11752  23.104914  -3.058159  0.149194  -0.421987  -24.109153  10.696969  0.994115  -19.091799  8.367631  9.383123  7.115006  2.526711  -0.46932  5.10758  -1.217477  2.43034  13.836451  -3.818865  6.358922  13.836451  -3.818865  6.358922  -5.855016  -2.362034  -12.776022  157.14858  31.21066  -137.616215  18.265781  -8.304001  48.873028  104.539956  -0.849365  27.515617  0.362213  -7.100474  10.14932  93.144002  30.689811  24.148235  7.909324  -26.516662  -96.595027  54.520357  -2.784267  1.488087  -30.01163  -1.165616  0.160134  -22.507642  -0.884625  0.06295  
0.0  89.887642  0.0  0.293654  5.967331  -97.574785  -1.990597  -13.934984  -0.382196  -2.589395  4.70367  23.6537  -2.839623  0.155425  -0.461454  -23.835787  10.291986  -0.357632  -17.776921  8.778114  10.963138  7.537899  2.583875  -0.461993  5.296437  -1.330809  2.09201  14.366198  -4.071476  5.402243  14.366199  -4.071476  5.402244  -4.511467  -2.523294  -9.072422  159.191699  28.891156  -142.386034  11.248909  -11.183231  56.676613  101.947728  -0.479238  28.887103  -1.98719  -6.347753  12.921119  91.392209  31.26647  23.891209  4.69631  -23.714801  -96.880966  57.766097  -3.113555  1.421186  -29.378952  -0.233893  1.477376  -22.033777  -0.247218  1.099796  
